<?xml version="1.0" encoding="UTF-8"?>
<!DOCTYPE svg PUBLIC "-//W3C//DTD SVG 1.1//EN" "http://www.w3.org/Graphics/SVG/1.1/DTD/svg11.dtd">
<svg xmlns="http://www.w3.org/2000/svg" version="1.1" width="128px" height="115px" style="shape-rendering:geometricPrecision; text-rendering:geometricPrecision; image-rendering:optimizeQuality; fill-rule:evenodd; clip-rule:evenodd" xmlns:xlink="http://www.w3.org/1999/xlink">
<g><path style="opacity:1" fill="#1dc4c6" d="M 59.5,13.5 C 59.5,14.5 59.5,15.5 59.5,16.5C 54.622,17.7459 49.9554,19.4126 45.5,21.5C 49.5067,17.8255 54.1734,15.1588 59.5,13.5 Z"/></g>
<g><path style="opacity:1" fill="#1ceaeb" d="M 69.5,13.5 C 69.1192,15.9418 69.7859,16.6085 71.5,15.5C 74.1396,17.6533 77.1396,18.9866 80.5,19.5C 84.1178,21.1373 87.4512,23.1373 90.5,25.5C 89.6303,27.5988 88.297,27.9321 86.5,26.5C 85.8503,28.1836 84.8503,29.5169 83.5,30.5C 82.9648,27.7615 83.9648,25.9282 86.5,25C 84.2779,24.3054 82.1113,23.4721 80,22.5C 77.0825,23.4944 76.9158,22.9944 79.5,21C 78.2161,20.3162 77.0495,20.4829 76,21.5C 75.6121,20.572 74.9454,19.9054 74,19.5C 72.7651,20.6155 71.5984,20.6155 70.5,19.5C 71.0851,21.3775 70.4184,23.0441 68.5,24.5C 67.391,24.4431 66.391,24.1098 65.5,23.5C 64.4479,21.744 62.7812,21.0773 60.5,21.5C 61.8333,20.0665 63.3333,18.7332 65,17.5C 65.4935,15.8659 65.6602,14.1992 65.5,12.5C 63.8762,12.3601 62.7096,13.0267 62,14.5C 61.3292,13.7476 60.4959,13.4142 59.5,13.5C 62.8333,9.5 66.1667,9.5 69.5,13.5 Z"/></g>
<g><path style="opacity:1" fill="#169997" d="M 69.5,13.5 C 73.6553,14.7417 77.322,16.7417 80.5,19.5C 77.1396,18.9866 74.1396,17.6533 71.5,15.5C 69.7859,16.6085 69.1192,15.9418 69.5,13.5 Z"/></g>
<g><path style="opacity:1" fill="#10fbfc" d="M 60.5,21.5 C 59.596,22.209 59.2627,23.209 59.5,24.5C 56.7552,25.6162 53.9218,26.6162 51,27.5C 48.418,26.2539 47.5847,26.9206 48.5,29.5C 44.5732,30.2841 41.5732,32.2841 39.5,35.5C 38.3121,34.3157 37.1455,34.3157 36,35.5C 35.6667,34.8333 35.3333,34.1667 35,33.5C 34.2825,34.4506 33.4491,34.6172 32.5,34C 33.5832,31.9441 35.2499,30.6108 37.5,30C 37.1667,29.6667 36.8333,29.3333 36.5,29C 38.0514,26.9547 40.0514,25.4547 42.5,24.5C 44.8833,25.462 45.8833,24.462 45.5,21.5C 49.9554,19.4126 54.622,17.7459 59.5,16.5C 59.5,15.5 59.5,14.5 59.5,13.5C 60.4959,13.4142 61.3292,13.7476 62,14.5C 62.7096,13.0267 63.8762,12.3601 65.5,12.5C 65.6602,14.1992 65.4935,15.8659 65,17.5C 63.3333,18.7332 61.8333,20.0665 60.5,21.5 Z"/></g>
<g><path style="opacity:1" fill="#15f3f2" d="M 83.5,30.5 C 81.8333,30.5 80.1667,30.5 78.5,30.5C 76.847,30.3404 75.5137,29.6737 74.5,28.5C 74.0269,27.0937 73.0269,26.427 71.5,26.5C 69.9731,26.573 68.9731,25.9063 68.5,24.5C 70.4184,23.0441 71.0851,21.3775 70.5,19.5C 71.5984,20.6155 72.7651,20.6155 74,19.5C 74.9454,19.9054 75.6121,20.572 76,21.5C 77.0495,20.4829 78.2161,20.3162 79.5,21C 76.9158,22.9944 77.0825,23.4944 80,22.5C 82.1113,23.4721 84.2779,24.3054 86.5,25C 83.9648,25.9282 82.9648,27.7615 83.5,30.5 Z"/></g>
<g><path style="opacity:0.678" fill="#026e70" d="M 37.5,25.5 C 37.0269,26.9063 36.0269,27.573 34.5,27.5C 34.9731,26.0937 35.9731,25.427 37.5,25.5 Z"/></g>
<g><path style="opacity:1" fill="#22bfc1" d="M 60.5,21.5 C 62.7812,21.0773 64.4479,21.744 65.5,23.5C 56.9617,27.3552 48.6284,31.6885 40.5,36.5C 40.1667,36.5 39.8333,36.5 39.5,36.5C 39.5,36.1667 39.5,35.8333 39.5,35.5C 41.5732,32.2841 44.5732,30.2841 48.5,29.5C 47.5847,26.9206 48.418,26.2539 51,27.5C 53.9218,26.6162 56.7552,25.6162 59.5,24.5C 59.2627,23.209 59.596,22.209 60.5,21.5 Z"/></g>
<g><path style="opacity:0.325" fill="#025b58" d="M 71.5,26.5 C 73.0269,26.427 74.0269,27.0937 74.5,28.5C 72.9731,28.573 71.9731,27.9063 71.5,26.5 Z"/></g>
<g><path style="opacity:1" fill="#1b9397" d="M 90.5,25.5 C 91.7736,26.1894 91.7736,27.0228 90.5,28C 88.0038,29.0804 85.6705,30.4138 83.5,32C 81.4652,32.5986 79.7985,32.0986 78.5,30.5C 80.1667,30.5 81.8333,30.5 83.5,30.5C 84.8503,29.5169 85.8503,28.1836 86.5,26.5C 88.297,27.9321 89.6303,27.5988 90.5,25.5 Z"/></g>
<g><path style="opacity:1" fill="#19b2b7" d="M 30.5,29.5 C 29.5554,32.9868 27.2221,34.3201 23.5,33.5C 25.3356,31.412 27.6689,30.0787 30.5,29.5 Z"/></g>
<g><path style="opacity:1" fill="#1f848a" d="M 104.5,33.5 C 102.097,33.448 99.7638,33.7814 97.5,34.5C 99.6346,31.3197 101.968,30.9864 104.5,33.5 Z"/></g>
<g><path style="opacity:1" fill="#16f1f2" d="M 45.5,21.5 C 45.8833,24.462 44.8833,25.462 42.5,24.5C 40.0514,25.4547 38.0514,26.9547 36.5,29C 36.8333,29.3333 37.1667,29.6667 37.5,30C 35.2499,30.6108 33.5832,31.9441 32.5,34C 33.4491,34.6172 34.2825,34.4506 35,33.5C 35.3333,34.1667 35.6667,34.8333 36,35.5C 37.1455,34.3157 38.3121,34.3157 39.5,35.5C 39.5,35.8333 39.5,36.1667 39.5,36.5C 38.5084,36.3284 37.8417,36.6618 37.5,37.5C 36.2155,40.5807 37.3821,42.5807 41,43.5C 41.7175,42.5494 42.5509,42.3828 43.5,43C 41.578,44.4196 40.2446,46.2529 39.5,48.5C 36.2733,45.9798 32.6066,44.6464 28.5,44.5C 21.3742,43.1275 19.7075,39.4608 23.5,33.5C 27.2221,34.3201 29.5554,32.9868 30.5,29.5C 31.5137,28.3263 32.847,27.6596 34.5,27.5C 36.0269,27.573 37.0269,26.9063 37.5,25.5C 39.8485,23.659 42.5152,22.3257 45.5,21.5 Z"/></g>
<g><path style="opacity:0.016" fill="#08474a" d="M 39.5,36.5 C 39.8333,36.5 40.1667,36.5 40.5,36.5C 39.1667,37.5 39.1667,38.5 40.5,39.5C 38.9731,39.573 37.9731,38.9063 37.5,37.5C 37.8417,36.6618 38.5084,36.3284 39.5,36.5 Z"/></g>
<g><path style="opacity:0.263" fill="#0a4e50" d="M 91.5,37.5 C 90.3406,39.2503 88.674,40.2503 86.5,40.5C 87.6594,38.7497 89.326,37.7497 91.5,37.5 Z"/></g>
<g><path style="opacity:1" fill="#0ffbfc" d="M 104.5,33.5 C 104.833,33.5 105.167,33.5 105.5,33.5C 105.5,34.1667 105.5,34.8333 105.5,35.5C 105.5,38.5 105.5,41.5 105.5,44.5C 104.167,44.5 102.833,44.5 101.5,44.5C 97.9601,44.7526 94.6267,45.4192 91.5,46.5C 90.8826,46.6107 90.3826,46.944 90,47.5C 89.6824,45.9391 88.8491,44.7724 87.5,44C 90.9929,43.8353 92.8262,42.002 93,38.5C 94.073,39.2797 95.2396,39.113 96.5,38C 96.1667,37.6667 95.8333,37.3333 95.5,37C 96.756,36.5831 97.4226,35.7498 97.5,34.5C 99.7638,33.7814 102.097,33.448 104.5,33.5 Z"/></g>
<g><path style="opacity:1" fill="#138a8f" d="M 86.5,40.5 C 85.5144,42.4077 83.8477,43.4077 81.5,43.5C 82.6594,41.7497 84.326,40.7497 86.5,40.5 Z"/></g>
<g><path style="opacity:1" fill="#21eaeb" d="M 97.5,34.5 C 97.4226,35.7498 96.756,36.5831 95.5,37C 95.8333,37.3333 96.1667,37.6667 96.5,38C 95.2396,39.113 94.073,39.2797 93,38.5C 92.8262,42.002 90.9929,43.8353 87.5,44C 88.8491,44.7724 89.6824,45.9391 90,47.5C 90.3826,46.944 90.8826,46.6107 91.5,46.5C 92.8333,46.5 94.1667,46.5 95.5,46.5C 95.1667,47.1667 94.8333,47.8333 94.5,48.5C 93.1667,49.1667 91.8333,49.8333 90.5,50.5C 88.6203,50.2291 87.287,50.8958 86.5,52.5C 80.9082,55.5728 75.4082,58.9061 70,62.5C 69.8311,76.6727 69.3311,90.6727 68.5,104.5C 68.5,103.5 68.5,102.5 68.5,101.5C 68.3334,88.1625 68.5001,74.8292 69,61.5C 71.1676,60.1776 71.0009,59.5109 68.5,59.5C 69.9187,58.5489 71.5853,58.2155 73.5,58.5C 73.5,57.5 73.5,56.5 73.5,55.5C 74.552,55.6495 75.552,55.4828 76.5,55C 75.5419,53.8525 75.8753,52.8525 77.5,52C 76.354,51.3551 75.354,50.5217 74.5,49.5C 73.8076,50.0253 73.3076,50.6919 73,51.5C 71.2245,50.4639 69.3911,50.4639 67.5,51.5C 71.833,48.331 76.4997,45.6643 81.5,43.5C 83.8477,43.4077 85.5144,42.4077 86.5,40.5C 88.674,40.2503 90.3406,39.2503 91.5,37.5C 93.1815,35.9925 95.1815,34.9925 97.5,34.5 Z"/></g>
<g><path style="opacity:1" fill="#19f7fa" d="M 105.5,35.5 C 106.496,51.3246 106.83,67.3246 106.5,83.5C 106.158,84.3382 105.492,84.6716 104.5,84.5C 105.827,80.8638 105.827,77.1971 104.5,73.5C 102.044,71.0301 100.044,71.1968 98.5,74C 102.013,76.2502 103.346,79.2502 102.5,83C 97.1999,84.9753 95.5332,83.142 97.5,77.5C 98.1419,66.7792 97.4753,56.4459 95.5,46.5C 94.1667,46.5 92.8333,46.5 91.5,46.5C 94.6267,45.4192 97.9601,44.7526 101.5,44.5C 103.38,51.2605 104.047,58.2605 103.5,65.5C 102.325,65.719 101.325,65.3857 100.5,64.5C 101.621,58.8862 101.788,53.2195 101,47.5C 100.586,47.9574 100.086,48.2907 99.5,48.5C 98.1667,54.8333 98.1667,61.1667 99.5,67.5C 101.286,69.0211 103.119,69.3544 105,68.5C 105.5,60.5069 105.666,52.5069 105.5,44.5C 105.5,41.5 105.5,38.5 105.5,35.5 Z"/></g>
<g><path style="opacity:1" fill="#0cfdfc" d="M 101.5,44.5 C 102.833,44.5 104.167,44.5 105.5,44.5C 105.666,52.5069 105.5,60.5069 105,68.5C 103.119,69.3544 101.286,69.0211 99.5,67.5C 98.1667,61.1667 98.1667,54.8333 99.5,48.5C 100.086,48.2907 100.586,47.9574 101,47.5C 101.788,53.2195 101.621,58.8862 100.5,64.5C 101.325,65.3857 102.325,65.719 103.5,65.5C 104.047,58.2605 103.38,51.2605 101.5,44.5 Z"/></g>
<g><path style="opacity:0.722" fill="#2cb1b6" d="M 105.5,33.5 C 106.117,33.6107 106.617,33.944 107,34.5C 107.828,51.0052 107.662,67.3385 106.5,83.5C 106.83,67.3246 106.496,51.3246 105.5,35.5C 105.5,34.8333 105.5,34.1667 105.5,33.5 Z"/></g>
<g><path style="opacity:1" fill="#1cdedf" d="M 37.5,37.5 C 37.9731,38.9063 38.9731,39.573 40.5,39.5C 45.5003,41.6643 50.167,44.331 54.5,47.5C 51.8806,47.2317 49.3806,47.565 47,48.5C 45.9485,45.401 44.4485,44.7344 42.5,46.5C 45.5663,48.7439 47.233,51.7439 47.5,55.5C 46.5084,55.6716 45.8417,55.3382 45.5,54.5C 45.0269,53.0937 44.0269,52.427 42.5,52.5C 40.847,52.3404 39.5137,51.6737 38.5,50.5C 38.0269,49.0937 37.0269,48.427 35.5,48.5C 32.6689,47.9213 30.3356,46.588 28.5,44.5C 32.6066,44.6464 36.2733,45.9798 39.5,48.5C 40.2446,46.2529 41.578,44.4196 43.5,43C 42.5509,42.3828 41.7175,42.5494 41,43.5C 37.3821,42.5807 36.2155,40.5807 37.5,37.5 Z"/></g>
<g><path style="opacity:0.49" fill="#0e6b70" d="M 35.5,48.5 C 37.0269,48.427 38.0269,49.0937 38.5,50.5C 36.9731,50.573 35.9731,49.9063 35.5,48.5 Z"/></g>
<g><path style="opacity:1" fill="#13f5f6" d="M 54.5,47.5 C 54.5,47.8333 54.5,48.1667 54.5,48.5C 54.3505,49.552 54.5172,50.552 55,51.5C 56.5,52.3333 57.6667,53.5 58.5,55C 56.7208,56.1404 55.0541,57.307 53.5,58.5C 51.1815,58.0075 49.1815,57.0075 47.5,55.5C 47.233,51.7439 45.5663,48.7439 42.5,46.5C 44.4485,44.7344 45.9485,45.401 47,48.5C 49.3806,47.565 51.8806,47.2317 54.5,47.5 Z"/></g>
<g><path style="opacity:1" fill="#118c8f" d="M 54.5,48.5 C 54.5,48.1667 54.5,47.8333 54.5,47.5C 57.3311,48.0787 59.6644,49.412 61.5,51.5C 58.7713,51.2455 56.4379,50.2455 54.5,48.5 Z"/></g>
<g><path style="opacity:0.102" fill="#065559" d="M 90.5,50.5 C 89.4863,51.6737 88.153,52.3404 86.5,52.5C 87.287,50.8958 88.6203,50.2291 90.5,50.5 Z"/></g>
<g><path style="opacity:0.8" fill="#166f6d" d="M 24.5,53.5 C 23.5,53.5 22.5,53.5 21.5,53.5C 22.2601,51.0155 23.2601,51.0155 24.5,53.5 Z"/></g>
<g><path style="opacity:0.235" fill="#02585d" d="M 42.5,52.5 C 44.0269,52.427 45.0269,53.0937 45.5,54.5C 43.9731,54.573 42.9731,53.9063 42.5,52.5 Z"/></g>
<g><path style="opacity:1" fill="#18f3f4" d="M 54.5,48.5 C 56.4379,50.2455 58.7713,51.2455 61.5,51.5C 63.5,52.8333 65.5,52.8333 67.5,51.5C 69.3911,50.4639 71.2245,50.4639 73,51.5C 73.3076,50.6919 73.8076,50.0253 74.5,49.5C 75.354,50.5217 76.354,51.3551 77.5,52C 75.8753,52.8525 75.5419,53.8525 76.5,55C 75.552,55.4828 74.552,55.6495 73.5,55.5C 73.5,56.5 73.5,57.5 73.5,58.5C 71.5853,58.2155 69.9187,58.5489 68.5,59.5C 66.4176,59.472 64.5843,60.1387 63,61.5C 61.692,60.8487 60.8586,61.5154 60.5,63.5C 60.8269,73.015 60.4936,82.3483 59.5,91.5C 59.8274,81.3194 59.494,71.3194 58.5,61.5C 56.5659,60.8897 54.8993,59.8897 53.5,58.5C 55.0541,57.307 56.7208,56.1404 58.5,55C 57.6667,53.5 56.5,52.3333 55,51.5C 54.5172,50.552 54.3505,49.552 54.5,48.5 Z"/></g>
<g><path style="opacity:0.192" fill="#014042" d="M 31.5,57.5 C 32.3279,63.6534 32.8279,69.9867 33,76.5C 33.7172,77.0442 34.2172,77.7109 34.5,78.5C 33.391,78.4431 32.391,78.1098 31.5,77.5C 31.5,70.8333 31.5,64.1667 31.5,57.5 Z"/></g>
<g><path style="opacity:1" fill="#16f8fa" d="M 27.5,54.5 C 28.8717,55.5116 30.205,56.5116 31.5,57.5C 31.5,64.1667 31.5,70.8333 31.5,77.5C 30.2228,79.1484 29.2228,80.9817 28.5,83C 26.5594,83.7429 24.7261,83.5762 23,82.5C 22.3333,73.5 22.3333,64.5 23,55.5C 24.3561,54.6198 25.8561,54.2865 27.5,54.5 Z"/></g>
<g><path style="opacity:1" fill="#0efbfd" d="M 68.5,59.5 C 71.0009,59.5109 71.1676,60.1776 69,61.5C 68.5001,74.8292 68.3334,88.1625 68.5,101.5C 66.9064,101.92 65.4064,102.586 64,103.5C 62.1739,102.99 62.0072,102.156 63.5,101C 62.8333,100.333 62.1667,99.6667 61.5,99C 63.3187,98.2597 64.6521,97.0931 65.5,95.5C 65.6661,89.8236 65.4994,84.1569 65,78.5C 63.9887,79.3366 62.8221,79.67 61.5,79.5C 61.8214,73.9738 61.4881,68.6405 60.5,63.5C 60.8586,61.5154 61.692,60.8487 63,61.5C 64.5843,60.1387 66.4176,59.472 68.5,59.5 Z"/></g>
<g><path style="opacity:0.388" fill="#046264" d="M 95.5,46.5 C 97.4753,56.4459 98.1419,66.7792 97.5,77.5C 96.8333,77.5 96.1667,77.5 95.5,77.5C 96.5541,68.194 96.7208,58.8606 96,49.5C 95.6174,48.944 95.1174,48.6107 94.5,48.5C 94.8333,47.8333 95.1667,47.1667 95.5,46.5 Z"/></g>
<g><path style="opacity:1" fill="#0afdfd" d="M 60.5,63.5 C 61.4881,68.6405 61.8214,73.9738 61.5,79.5C 62.8221,79.67 63.9887,79.3366 65,78.5C 65.4994,84.1569 65.6661,89.8236 65.5,95.5C 64.5178,94.8592 63.5178,94.1925 62.5,93.5C 60.1349,97.7547 59.1349,97.4214 59.5,92.5C 59.5,92.1667 59.5,91.8333 59.5,91.5C 60.4936,82.3483 60.8269,73.015 60.5,63.5 Z"/></g>
<g><path style="opacity:1" fill="#198d8f" d="M 95.5,77.5 C 94.656,79.7593 92.9893,80.7593 90.5,80.5C 91.8993,79.1103 93.5659,78.1103 95.5,77.5 Z"/></g>
<g><path style="opacity:1" fill="#24d8d8" d="M 21.5,53.5 C 22.5,53.5 23.5,53.5 24.5,53.5C 25.791,53.2627 26.791,53.596 27.5,54.5C 25.8561,54.2865 24.3561,54.6198 23,55.5C 22.3333,64.5 22.3333,73.5 23,82.5C 24.7261,83.5762 26.5594,83.7429 28.5,83C 29.2228,80.9817 30.2228,79.1484 31.5,77.5C 32.391,78.1098 33.391,78.4431 34.5,78.5C 37.0316,79.5957 39.3649,80.9291 41.5,82.5C 39.7988,82.0338 38.2988,82.0338 37,82.5C 35.8229,81.6824 34.4896,80.6824 33,79.5C 31.1739,80.0104 31.0072,80.8438 32.5,82C 30.9632,83.1096 30.2965,84.6096 30.5,86.5C 31.552,86.3505 32.552,86.5172 33.5,87C 35.2801,88.8533 36.9468,90.6866 38.5,92.5C 35.7018,91.3503 33.0352,90.017 30.5,88.5C 29.656,86.2407 27.9893,85.2407 25.5,85.5C 23.9826,85.4894 22.8159,84.8228 22,83.5C 21.5002,73.5056 21.3335,63.5056 21.5,53.5 Z"/></g>
<g><path style="opacity:1" fill="#1af3f3" d="M 104.5,84.5 C 101.873,85.1049 99.2066,85.6049 96.5,86C 97.2524,86.6708 97.5858,87.5041 97.5,88.5C 95.3649,90.0709 93.0316,91.4043 90.5,92.5C 87.2521,92.9014 84.0854,93.568 81,94.5C 80.5026,91.854 80.3359,89.1873 80.5,86.5C 83.5113,85.3307 86.178,83.664 88.5,81.5C 88.8417,80.6618 89.5084,80.3284 90.5,80.5C 92.9893,80.7593 94.656,79.7593 95.5,77.5C 96.1667,77.5 96.8333,77.5 97.5,77.5C 95.5332,83.142 97.1999,84.9753 102.5,83C 103.346,79.2502 102.013,76.2502 98.5,74C 100.044,71.1968 102.044,71.0301 104.5,73.5C 105.827,77.1971 105.827,80.8638 104.5,84.5 Z"/></g>
<g><path style="opacity:0.314" fill="#0b4a55" d="M 43.5,83.5 C 45.674,83.7497 47.3406,84.7497 48.5,86.5C 46.326,86.2503 44.6594,85.2503 43.5,83.5 Z"/></g>
<g><path style="opacity:0.475" fill="#015659" d="M 88.5,81.5 C 86.178,83.664 83.5113,85.3307 80.5,86.5C 82.4844,83.8361 85.1511,82.1695 88.5,81.5 Z"/></g>
<g><path style="opacity:1" fill="#1c9a9e" d="M 25.5,85.5 C 27.9893,85.2407 29.656,86.2407 30.5,88.5C 28.5659,87.8897 26.8993,86.8897 25.5,85.5 Z"/></g>
<g><path style="opacity:1" fill="#20a4a7" d="M 104.5,84.5 C 102.664,86.588 100.331,87.9213 97.5,88.5C 97.5858,87.5041 97.2524,86.6708 96.5,86C 99.2066,85.6049 101.873,85.1049 104.5,84.5 Z"/></g>
<g><path style="opacity:1" fill="#1c888a" d="M 50.5,87.5 C 52.153,87.6596 53.4863,88.3263 54.5,89.5C 54.5,89.8333 54.5,90.1667 54.5,90.5C 54.1667,90.5 53.8333,90.5 53.5,90.5C 51.8564,90.1898 50.8564,89.1898 50.5,87.5 Z"/></g>
<g><path style="opacity:1" fill="#16f2f3" d="M 41.5,82.5 C 42.4916,82.3284 43.1583,82.6618 43.5,83.5C 44.6594,85.2503 46.326,86.2503 48.5,86.5C 49.4916,86.3284 50.1583,86.6618 50.5,87.5C 50.8564,89.1898 51.8564,90.1898 53.5,90.5C 54.292,92.2572 55.6253,93.5905 57.5,94.5C 55.3795,94.5398 53.3795,95.0398 51.5,96C 53.6785,96.4419 54.3452,97.4419 53.5,99C 55.0629,99.7589 56.0629,100.926 56.5,102.5C 53.5152,101.674 50.8485,100.341 48.5,98.5C 48.0269,97.0937 47.0269,96.427 45.5,96.5C 42.6689,95.9213 40.3356,94.588 38.5,92.5C 36.9468,90.6866 35.2801,88.8533 33.5,87C 32.552,86.5172 31.552,86.3505 30.5,86.5C 30.2965,84.6096 30.9632,83.1096 32.5,82C 31.0072,80.8438 31.1739,80.0104 33,79.5C 34.4896,80.6824 35.8229,81.6824 37,82.5C 38.2988,82.0338 39.7988,82.0338 41.5,82.5 Z"/></g>
<g><path style="opacity:0.188" fill="#033537" d="M 58.5,61.5 C 59.494,71.3194 59.8274,81.3194 59.5,91.5C 59.5,91.8333 59.5,92.1667 59.5,92.5C 57.7162,92.1075 56.0495,91.4408 54.5,90.5C 54.5,90.1667 54.5,89.8333 54.5,89.5C 55.8474,90.0283 57.1807,90.195 58.5,90C 58.4474,80.7097 58.4474,71.2097 58.5,61.5 Z"/></g>
<g><path style="opacity:1" fill="#2ac0bd" d="M 80.5,86.5 C 80.3359,89.1873 80.5026,91.854 81,94.5C 84.0854,93.568 87.2521,92.9014 90.5,92.5C 87.1515,94.934 83.6515,97.2673 80,99.5C 79.1864,94.9796 79.353,90.6463 80.5,86.5 Z"/></g>
<g><path style="opacity:1" fill="#17f9f7" d="M 53.5,90.5 C 53.8333,90.5 54.1667,90.5 54.5,90.5C 56.0495,91.4408 57.7162,92.1075 59.5,92.5C 59.1349,97.4214 60.1349,97.7547 62.5,93.5C 63.5178,94.1925 64.5178,94.8592 65.5,95.5C 64.6521,97.0931 63.3187,98.2597 61.5,99C 62.1667,99.6667 62.8333,100.333 63.5,101C 62.0072,102.156 62.1739,102.99 64,103.5C 65.4064,102.586 66.9064,101.92 68.5,101.5C 68.5,102.5 68.5,103.5 68.5,104.5C 65.03,105.803 61.6967,105.469 58.5,103.5C 57.5084,103.672 56.8417,103.338 56.5,102.5C 56.0629,100.926 55.0629,99.7589 53.5,99C 54.3452,97.4419 53.6785,96.4419 51.5,96C 53.3795,95.0398 55.3795,94.5398 57.5,94.5C 55.6253,93.5905 54.292,92.2572 53.5,90.5 Z"/></g>
<g><path style="opacity:0.439" fill="#117376" d="M 45.5,96.5 C 47.0269,96.427 48.0269,97.0937 48.5,98.5C 46.9731,98.573 45.9731,97.9063 45.5,96.5 Z"/></g>
<g><path style="opacity:1" fill="#34aaac" d="M 58.5,103.5 C 61.6967,105.469 65.03,105.803 68.5,104.5C 64.8663,108.528 61.5329,108.195 58.5,103.5 Z"/></g>
</svg>
